<?xml version="1.0" encoding="UTF-8"?>
<svg id="_图层_1" data-name="图层_1" xmlns="http://www.w3.org/2000/svg" version="1.1" viewBox="0 0 150 150">
  <!-- Generator: Adobe Illustrator 30.0.0, SVG Export Plug-In . SVG Version: 2.1.1 Build 123)  -->
  <defs>
    <style>
      .st0 {
        fill: #fff;
      }
    </style>
  </defs>
  <path class="st0" d="M25.05,26.44c1.2,1.16,2.05,2.08,3.44,3.92.59-.58,1.3-1.78,1.5-2.5.05-.18-.02-.43-.18-.53-1.08-.64-2.86-1.27-4.23-1.66l-.53.77Z"/>
  <path class="st0" d="M33.5,22.85c.69,7.68,3.08,13.91,10.24,16.99.26.11.41-.02.66-.33.49-.6,1.28-.94,2.41-1.2l.11-.78c-8.08-2.12-10.96-7.77-12.01-14.71l-1.41.04Z"/>
  <path class="st0" d="M32.45,21.54l.07,1.79h8.58c-1.35,6.68-3.76,10.98-11.4,15.87l.59.94c8.79-3.68,11.34-8.09,13.51-16.19.38-.31.86-.78,1.25-1.23.09-.1.08-.2-.01-.28-.62-.54-1.75-1.42-2.54-1.97-.14-.1-.25-.1-.36.01-.47.44-1.04,1.07-1.04,1.07h-8.64Z"/>
  <path class="st0" d="M26.68,21.44c1.29,1.18,2.09,2.08,3.4,3.78.6-.57,1.22-1.6,1.48-2.33.06-.17-.01-.47-.17-.57-1.11-.67-2.76-1.24-4.12-1.62l-.58.75Z"/>
  <path class="st0" d="M31.8,27.08l-3.74,6.68c-.77-.21-1.7-.41-2.7-.62l-.35.78c2.1,1.17,2.37,1.66,2.31,2.53-.06.91-.04,1.21.01,1.42.14.57.26.64.86.62.46,0,1.26-.23,1.81-.77.36-.36.43-.55.36-.96-.07-.44-.15-.73-.29-1.16-.15-.46-.16-.6.18-1.47l2.43-6.61-.89-.42Z"/>
  <path class="st0" d="M55.21,23.41c1.51,9.37,4.34,13.18,10.11,16.26.71.38.77.35,1.33-.23.49-.51,1.06-.7,2.33-.9l.13-.76c-7.03-2.34-10.09-5.5-12.72-14.69l-1.19.32Z"/>
  <path class="st0" d="M58.41,20.3c.75,1.81,1.31,3.53,1.79,5.69.88-.35,1.75-1.03,2.25-1.56.11-.15.16-.41.08-.57-.61-1.26-2.13-3.01-3.22-4.03l-.89.47Z"/>
  <path class="st0" d="M67.43,22.98c-.89-.42-2.06-.98-2.77-1.25-.27-.1-.31-.08-.35.2-1.35,8.39-4.37,12.97-10.63,17.42l.71.94c7.43-3.56,10.21-8,12.13-15.91l.9-.57c.28-.18.43-.32.43-.47,0-.12-.13-.22-.42-.36"/>
  <path class="st0" d="M50.6,26.54v13.84c1.2,0,1.89-.04,2.41-.2v-12.4l.63-.4c.18-.11.28-.25.28-.36,0-.08-.08-.2-.3-.33-.58-.35-1.42-.82-1.99-1.11l-1.04.96Z"/>
  <path class="st0" d="M55.69,21.21c-.98-.45-1.95-.86-2.81-1.21-.17-.07-.24-.04-.27.09-.92,3.61-3.35,8.09-5.5,11.36l.97.72c3.16-3.09,4.93-6.1,6.62-9.89l.78-.4c.26-.13.39-.26.42-.36.03-.12-.08-.23-.22-.3"/>
  <path class="st0" d="M73.05,22.81v1.79h13.47l-1.11,1.78.69.64,2.84-1.7c.14-.09,1.32-.48,1.61-.67.12-.08.14-.19.06-.29-.58-.66-1.74-1.82-2.46-2.51-.15-.15-.23-.12-.4,0-.57.4-1.33.97-1.33.97h-13.35Z"/>
  <path class="st0" d="M73.05,21.6c-.76,1.61-1.49,2.39-2.6,3.4-.15.14-.16.35-.04.51.44.57,1.58,1.57,2.3,1.97.91-1.31,1.31-3.06,1.4-5.7l-1.07-.18Z"/>
  <path class="st0" d="M77.74,19.94c.9,1.02,1.87,2.28,2.42,3.29h.78c.47-.52,1.11-1.33,1.37-1.83.11-.22.09-.37-.11-.5-1.08-.67-2.52-1.27-3.77-1.64l-.68.68Z"/>
  <path class="st0" d="M70.2,32.02l.07,1.85h20.06l.26-1.02c-.61-.53-2.1-1.71-2.94-2.34-.11-.08-.19-.09-.27,0-.56.6-1.38,1.52-1.38,1.52h-15.81Z"/>
  <path class="st0" d="M74.25,26.8l.12,1.69h8.09l-1.47,1.93.95.54,2.59-1.72c.21-.15,1.33-.43,1.66-.69.12-.09.14-.18.05-.28-.61-.7-1.46-1.62-2.09-2.2-.15-.13-.24-.16-.39-.05-.45.33-1.12.78-1.12.78h-8.39Z"/>
  <path class="st0" d="M79.09,30.22v7.09c0,.37-.25.58-.64.57-1.09-.01-1.93-.05-3.15-.1v1.01c1.72.39,2.28.54,2.48,1.3.11.42.12.43.54.37,1.04-.14,1.77-.43,2.29-.67.93-.44.96-.93.96-1.68v-6.41l.4-.64c.07-.12.21-.37.21-.44,0-.08-.08-.12-.24-.16-.93-.18-1.64-.31-2.58-.45-.19-.03-.27-.02-.27.2"/>
  <path class="st0" d="M94.06,21.48c.08,1.37.14,2.35.13,3.38,0,.35,0,1.42,0,1.76,0,7.06-.53,9.23-2.39,13.24l1.04.57c2.98-3.92,3.86-6.61,3.86-14.12v-2.7l.33-1.33c-.92-.37-1.87-.7-2.84-.98-.11-.03-.16.04-.15.18"/>
  <path class="st0" d="M101.9,23.81c-.52,1.66-2.21,4.98-3.35,6.7-.22.34-.41.53-.82.82-.22.16-.21.23-.01.44.43.46.93.92,1.39,1.33.11.1.21.08.34-.06.27-.28.52-.54.84-.88l.2-.75c.95-1.53,2.41-4.19,3.21-5.92l.65-.46c.21-.16.22-.31.06-.39-.79-.41-1.42-.69-2.15-1.02-.25-.11-.28-.05-.36.19"/>
  <path class="st0" d="M94.75,22.19l.07,1.69h17.66l.26-.93c-.63-.53-1.82-1.43-2.63-2.03-.11-.08-.19-.09-.27,0-.6.6-1.24,1.27-1.24,1.27h-13.85Z"/>
  <path class="st0" d="M96.5,34.91l.07,1.76h16.28l.26-.95c-.63-.53-1.81-1.42-2.65-2.05-.11-.08-.21-.09-.29,0-.58.58-1.27,1.25-1.27,1.25h-12.4Z"/>
  <path class="st0" d="M97.59,26.16l.07,1.67h14.12l.18-.93c-.65-.53-1.55-1.23-2.41-1.85-.11-.08-.21-.06-.29.01-.56.51-1.18,1.09-1.18,1.09h-10.49Z"/>
  <path class="st0" d="M99,31.03l.07,1.63h12.43l.26-.87c-.58-.52-1.39-1.21-2.15-1.78-.11-.08-.2-.08-.29,0-.61.52-1.15,1.02-1.15,1.02h-9.16Z"/>
  <path class="st0" d="M103.82,40.5c1.2,0,1.71-.04,2.23-.2v-9.97l.47-.51c.21-.23.28-.38.28-.42,0-.14-.16-.25-.41-.31-.57-.13-1.52-.31-2.32-.44-.22-.03-.26-.02-.26.22v11.64Z"/>
  <path class="st0" d="M101.18,19.89c.97,1.12,1.73,2.12,2.43,3.22h.68c.47-.5,1.07-1.27,1.39-1.84.11-.2.08-.35-.11-.47-1.01-.63-2.64-1.2-3.82-1.55l-.57.64Z"/>
  <path class="st0" d="M87.74,106.53v-.02c-3.45.35-6.46.86-9.06,1.53.46-.8,1.03-1.63,1.34-2.07,1.3-1.88,3.07-4.46,1.16-7.05-1.99-2.7-5.5-1.59-7.38-1-1.44.46-2.82.89-4.12,1.28-.15.03-.3.06-.46.11-2.11.64-3.29,2.87-2.65,4.98.56,1.83,2.32,2.97,4.16,2.81-.49,1.57-.57,3.07-.26,4.44-3.98,2.81-4.99,6.25-5.1,8.75-.13,2.93.97,5.65,3.1,7.66,1.88,1.78,4.4,2.78,6.9,2.78.3,0,.6-.02.9-.04,4.35-.44,8.02-3.75,8.91-8.04.32-1.53.53-4.58-1.61-7.85,1.51-.27,3.16-.5,4.95-.69v-.02c1.93-.36,3.3-2.14,3.1-4.14-.2-2-1.9-3.48-3.88-3.44M77.68,121.1c-.21.99-1.19,1.88-2.18,1.98-.57.06-1.26-.21-1.76-.68-.5-.47-.74-1.06-.71-1.76.05-1.22.93-2.32,2.55-3.27,1.57,1.27,2.33,2.6,2.09,3.73M67.13,75.6c0-2.81,2.28-5.08,5.08-5.08s5.08,2.28,5.08,5.08-2.28,5.08-5.08,5.08-5.08-2.28-5.08-5.08M107.77,84.54c-.17,2.38-2.15,4.19-4.49,4.19-.17,0-.35,0-.52,0-1.76-.12-3.21-1.24-3.84-2.77-1.04.12-2.58.42-4.85,1.07l-.28.07c-.89.2-40.01,9.81-40.55,9.93-2.26.57-4.23.85-5.93.85-1.26,0-2.38-.16-3.36-.47-2.1-.67-3.09-1.9-3.53-2.71-.49-.78-.75-1.72-.68-2.71.17-2.38,2.15-4.19,4.5-4.19.17,0,.34,0,.52,0,1.73.12,3.15,1.2,3.81,2.68.76-.09,1.72-.25,2.94-.56l.14-.03c.22-.05,39.65-9.73,40.51-9.92,6.71-1.92,10.57-1.89,13.25.28,1.52.81,2.5,2.46,2.38,4.29"/>
  <path class="st0" d="M122.78,52.86c-1.41-.54-1.92-.89-1.92-1.43,0-.43.39-.84,1.26-.84.77,0,1.45.2,2.15.67l.31-1.74c-.69-.38-1.69-.54-2.45-.54-1.91,0-3.37.76-3.37,2.51,0,1.43.94,2.07,2.37,2.58,1.33.49,1.69.8,1.69,1.38s-.43.99-1.28.99-1.86-.36-2.56-.79l-.26,1.91c.84.36,1.79.53,2.78.53,1.86,0,3.5-.79,3.5-2.74,0-1.38-.87-2-2.22-2.48"/>
  <path class="st0" d="M116.29,56.13c-.99,0-1.13-.71-1.13-1.69v-3.55h2.27v-1.76h-2.27v-2.4l-2,.44v1.96h-1.33v1.76h1.33v3.93c0,2,.72,3.12,2.74,3.12.48,0,1.13-.1,1.61-.23l-.21-1.74c-.3.11-.67.16-1,.16"/>
  <path class="st0" d="M107.85,48.93c-.97,0-2.05.54-2.63,1.53h-.03l-.08-1.35h-1.87v8.67h2.02v-5.88c.44-.64,1.23-1.26,2.09-1.26.9,0,1.36.57,1.36,1.71v5.44h2.02v-5.7c0-2.12-.97-3.15-2.87-3.15"/>
  <path class="st0" d="M97.5,48.93c-2.84,0-4.35,1.99-4.35,4.57s1.48,4.5,4.24,4.5,4.32-1.94,4.32-4.62-1.54-4.45-4.21-4.45M97.43,56.34c-1.46,0-2.2-1.35-2.2-2.89s.76-2.89,2.22-2.89,2.15,1.33,2.15,2.86-.71,2.92-2.17,2.92"/>
  <polygon class="st0" points="84.85 57.79 87.03 57.79 87.03 52.74 91.98 52.74 91.98 50.97 87.03 50.97 87.03 47.31 92.21 47.31 92.21 45.48 84.85 45.48 84.85 57.79"/>
  <path class="st0" d="M76.96,45.32c-.72,0-1.33.59-1.33,1.31s.61,1.31,1.33,1.31,1.36-.59,1.36-1.31-.64-1.31-1.36-1.31"/>
  <rect class="st0" x="75.98" y="49.11" width="2" height="8.67"/>
  <path class="st0" d="M70.85,55.22h-.05l-1.84-6.09h-2.22l3.15,8.49-.23.56c-.41,1.03-1.07,1.45-2.18,1.54l.31,1.82c2.09-.21,3.07-1.17,3.76-3.1l3.33-9.31h-2.22l-1.82,6.09Z"/>
  <path class="st0" d="M62.97,48.93c-1.1,0-2.12.66-2.64,1.53h-.03l-.08-1.35h-1.86v8.67h2v-5.8c.41-.59,1.23-1.27,2.1-1.27s1.33.57,1.33,1.71v5.36h2v-5.7c0-2.12-.92-3.15-2.83-3.15"/>
  <path class="st0" d="M52.9,48.93c-1.22,0-2.04.2-3.15.62l.31,1.69c.99-.46,1.92-.67,2.69-.67.95,0,1.64.39,1.64,1.53v.25c-3.54.07-5.31,1.32-5.31,3.31,0,1.45,1,2.33,2.55,2.33.94,0,2.04-.25,2.78-1.41h.03l.08,1.2h1.87v-5.21c0-2.5-.99-3.65-3.5-3.65M54.39,55.29c-.59.62-1.36.97-2.23.97-.64,0-1.05-.25-1.05-.9,0-.83,1.11-1.66,3.29-1.71v1.64Z"/>
  <polygon class="st0" points="45.21 50.46 39.92 50.46 39.92 45.48 37.75 45.48 37.75 57.79 39.92 57.79 39.92 52.37 45.21 52.37 45.21 57.79 47.39 57.79 47.39 45.48 45.21 45.48 45.21 50.46"/>
</svg>